<svg xmlns="http://www.w3.org/2000/svg" viewBox="0 0 140 80" width="140" height="80">
  <!-- Soft background -->
  <ellipse cx="70" cy="42" rx="50" ry="28" fill="#B8956A" opacity="0.08"/>
  <!-- Back document -->
  <rect x="52" y="8" width="48" height="58" rx="6" fill="#B8956A" opacity="0.25"/>
  <rect x="55" y="11" width="42" height="52" rx="4" fill="#B8956A" opacity="0.15"/>
  <!-- Middle document -->
  <rect x="42" y="14" width="48" height="58" rx="6" fill="#B8956A" opacity="0.35"/>
  <rect x="45" y="17" width="42" height="52" rx="4" fill="#B8956A" opacity="0.2"/>
  <!-- Front document -->
  <rect x="32" y="20" width="48" height="58" rx="6" fill="#B8956A" opacity="0.4"/>
  <rect x="36" y="24" width="40" height="50" rx="3" fill="#E8CC7A" opacity="0.15"/>
  <!-- Text line suggestions -->
  <rect x="40" y="32" width="28" height="2.5" rx="1.25" fill="#B8956A" opacity="0.3"/>
  <rect x="40" y="39" width="24" height="2.5" rx="1.25" fill="#B8956A" opacity="0.25"/>
  <rect x="40" y="46" width="26" height="2.5" rx="1.25" fill="#B8956A" opacity="0.2"/>
  <rect x="40" y="53" width="20" height="2.5" rx="1.25" fill="#B8956A" opacity="0.18"/>
  <!-- Gold seal -->
  <circle cx="96" cy="60" r="14" fill="#D4A843" opacity="0.5"/>
  <circle cx="96" cy="60" r="9" fill="#E8CC7A" opacity="0.4"/>
  <circle cx="96" cy="60" r="5" fill="#D4A843" opacity="0.25"/>
</svg>