<svg xmlns="http://www.w3.org/2000/svg" viewBox="70 10 310 250" width="200" height="161">
  <!-- Counties rendered from ONS boundary data, scaled to banner format -->
  <g transform="translate(40,-10) scale(0.55)">

    <!-- Cambridgeshire - warm brown -->
    <path d="M211.9,432.0 L205.6,414.0 L192.0,410.1 L167.7,426.3 L161.2,414.0 L160.6,403.9 L163.7,389.6 L143.1,379.4 L137.2,367.4 L136.3,356.4 L128.4,350.8 L118.4,342.7 L109.6,331.6 L100.6,326.4 L97.4,315.2 L90.5,306.0 L83.2,297.9 L84.2,290.0 L102.0,281.4 L118.9,257.6 L102.5,235.3 L101.1,222.7 L102.3,214.6 L108.9,219.6 L131.8,242.7 L143.1,228.5 L155.2,219.9 L210.5,205.1 L232.4,182.6 L238.4,177.7 L246.2,199.0 L248.8,234.5 L254.7,242.1 L293.7,262.2 L293.0,271.4 L295.5,308.0 L311.0,326.5 L277.9,321.6 L280.7,348.5 L313.2,348.4 L307.1,369.9 L291.2,373.9 L286.1,397.9 L284.9,420.4 L253.5,405.1 L239.5,411.4 L220.4,411.4 L211.9,432.0 Z" fill="#B8956A" opacity="0.3"/>
    <path d="M211.9,432.0 L205.6,414.0 L192.0,410.1 L167.7,426.3 L161.2,414.0 L160.6,403.9 L163.7,389.6 L143.1,379.4 L137.2,367.4 L136.3,356.4 L128.4,350.8 L118.4,342.7 L109.6,331.6 L100.6,326.4 L97.4,315.2 L90.5,306.0 L83.2,297.9 L84.2,290.0 L102.0,281.4 L118.9,257.6 L102.5,235.3 L101.1,222.7 L102.3,214.6 L108.9,219.6 L131.8,242.7 L143.1,228.5 L155.2,219.9 L210.5,205.1 L232.4,182.6 L238.4,177.7 L246.2,199.0 L248.8,234.5 L254.7,242.1 L293.7,262.2 L293.0,271.4 L295.5,308.0 L311.0,326.5 L277.9,321.6 L280.7,348.5 L313.2,348.4 L307.1,369.9 L291.2,373.9 L286.1,397.9 L284.9,420.4 L253.5,405.1 L239.5,411.4 L220.4,411.4 L211.9,432.0 Z" fill="none" stroke="#A08060" stroke-width="0.6" opacity="0.3"/>

    <!-- Norfolk - harvest gold -->
    <path d="M471.8,299.7 L438.9,291.0 L387.3,282.6 L363.9,284.7 L349.0,280.9 L336.2,264.4 L297.6,264.9 L293.7,262.2 L254.7,242.1 L252.2,244.9 L279.4,203.0 L276.9,164.1 L277.7,126.8 L297.6,103.6 L314.6,67.7 L336.2,66.0 L367.2,66.1 L389.9,66.0 L419.8,69.6 L453.0,74.6 L517.4,97.2 L581.9,160.5 L592.7,197.3 L587.5,202.7 L541.2,216.4 L511.2,205.4 L512.1,205.7 L542.1,221.7 L570.2,239.3 L578.3,248.6 L550.0,261.0 L521.7,265.7 L496.7,287.0 L471.8,299.7 Z" fill="#D4A843" opacity="0.35"/>
    <path d="M471.8,299.7 L438.9,291.0 L387.3,282.6 L363.9,284.7 L349.0,280.9 L336.2,264.4 L297.6,264.9 L293.7,262.2 L254.7,242.1 L252.2,244.9 L279.4,203.0 L276.9,164.1 L277.7,126.8 L297.6,103.6 L314.6,67.7 L336.2,66.0 L367.2,66.1 L389.9,66.0 L419.8,69.6 L453.0,74.6 L517.4,97.2 L581.9,160.5 L592.7,197.3 L587.5,202.7 L541.2,216.4 L511.2,205.4 L512.1,205.7 L542.1,221.7 L570.2,239.3 L578.3,248.6 L550.0,261.0 L521.7,265.7 L496.7,287.0 L471.8,299.7 Z" fill="none" stroke="#D4A843" stroke-width="0.6" opacity="0.35"/>

    <!-- Suffolk - soft sage -->
    <path d="M495.9,459.7 L465.9,428.3 L464.9,431.0 L453.1,451.7 L415.0,442.8 L371.8,445.4 L354.6,419.3 L351.8,401.3 L312.5,411.5 L285.2,400.7 L283.1,395.3 L295.4,373.8 L313.2,348.4 L280.7,348.5 L277.9,321.6 L311.0,326.5 L295.5,308.0 L289.0,297.4 L297.6,264.9 L347.8,259.2 L349.0,280.9 L393.2,286.5 L488.4,286.4 L524.7,261.7 L567.6,259.1 L591.6,232.9 L596.8,252.0 L576.8,315.6 L564.8,363.4 L528.4,418.8 L506.8,431.4 L502.3,418.2 L505.6,431.8 L495.9,459.7 Z" fill="#8FBF96" opacity="0.28"/>
    <path d="M495.9,459.7 L465.9,428.3 L464.9,431.0 L453.1,451.7 L415.0,442.8 L371.8,445.4 L354.6,419.3 L351.8,401.3 L312.5,411.5 L285.2,400.7 L283.1,395.3 L295.4,373.8 L313.2,348.4 L280.7,348.5 L277.9,321.6 L311.0,326.5 L295.5,308.0 L289.0,297.4 L297.6,264.9 L347.8,259.2 L349.0,280.9 L393.2,286.5 L488.4,286.4 L524.7,261.7 L567.6,259.1 L591.6,232.9 L596.8,252.0 L576.8,315.6 L564.8,363.4 L528.4,418.8 L506.8,431.4 L502.3,418.2 L505.6,431.8 L495.9,459.7 Z" fill="none" stroke="#8FBF96" stroke-width="0.6" opacity="0.3"/>
  </g>

  <!-- North Sea - soft blue ellipses along east coast -->
  <ellipse cx="370" cy="110" rx="8" ry="35" fill="#9BBFDF" opacity="0.12"/>
  <ellipse cx="365" cy="170" rx="6" ry="25" fill="#C5DCF0" opacity="0.1"/>
  <ellipse cx="360" cy="220" rx="6" ry="20" fill="#9BBFDF" opacity="0.08"/>

  <!-- The Wash - blue hint -->
  <ellipse cx="200" cy="60" rx="15" ry="5" fill="#9BBFDF" opacity="0.08"/>

  <!-- Town dots -->
  <circle cx="310" cy="118" r="3" fill="#C4886B" opacity="0.5"/>
  <circle cx="293" cy="235" r="2.5" fill="#C4886B" opacity="0.45"/>
  <circle cx="163" cy="207" r="2.5" fill="#C4886B" opacity="0.45"/>
  <circle cx="188" cy="83" r="2" fill="#C4886B" opacity="0.35"/>
  <circle cx="243" cy="176" r="1.8" fill="#C4886B" opacity="0.3"/>
</svg>
